<svg width="153" height="98" viewBox="0 0 153 98" fill="none" xmlns="http://www.w3.org/2000/svg">
<path d="M44.0684 42.4971C44.0684 42.9242 43.9883 43.3646 43.8281 43.8184C43.6947 44.2721 43.5212 44.6859 43.3076 45.0596C42.9606 45.113 42.6403 45.2331 42.3467 45.4199C42.0798 45.6068 41.8662 45.7269 41.7061 45.7803C41.359 45.8337 40.9453 45.8604 40.4648 45.8604C40.0111 45.8337 39.5973 45.8337 39.2236 45.8604C38.5029 45.9137 37.7822 45.9938 37.0615 46.1006C36.3675 46.2074 35.6735 46.3408 34.9795 46.501C34.9261 46.501 34.8727 46.5143 34.8193 46.541C34.766 46.541 34.7393 46.5677 34.7393 46.6211C34.7393 46.6745 34.7526 46.7279 34.7793 46.7812C34.806 46.8346 34.8193 46.888 34.8193 46.9414C34.8193 47.0215 34.7393 47.0615 34.5791 47.0615C34.2855 47.0615 34.0853 46.9681 33.9785 46.7812C33.1243 46.9948 32.2702 47.2217 31.416 47.4619C30.5618 47.6755 29.7077 47.889 28.8535 48.1025C28.4264 48.1826 27.9993 48.2627 27.5723 48.3428C27.1719 48.4229 26.7581 48.5296 26.3311 48.6631C26.1175 48.7165 25.904 48.8099 25.6904 48.9434L25.0498 49.3438C24.9163 49.3171 24.7962 49.3037 24.6895 49.3037C24.5827 49.277 24.4759 49.2637 24.3691 49.2637C23.9154 49.2637 23.4349 49.3571 22.9277 49.5439C22.4206 49.7041 21.9801 49.931 21.6064 50.2246H21.3262C21.0592 50.2246 20.8724 50.1846 20.7656 50.1045C20.5254 50.0778 20.3786 50.1579 20.3252 50.3447C20.2718 50.5049 20.1784 50.6517 20.0449 50.7852C19.1374 50.8652 18.2432 51.0254 17.3623 51.2656C16.4814 51.5059 15.6139 51.7728 14.7598 52.0664C13.9056 52.3333 13.0381 52.6136 12.1572 52.9072C11.3031 53.1742 10.4355 53.3877 9.55469 53.5479C9.44792 54.0817 9.39453 54.6956 9.39453 55.3896C9.39453 55.9235 9.43457 56.5374 9.51465 57.2314C9.62142 57.9255 9.83496 58.5127 10.1553 58.9932V59.0732C10.1553 59.2067 10.1019 59.3001 9.99512 59.3535C9.88835 59.4069 9.83496 59.5003 9.83496 59.6338C9.83496 60.3278 9.90169 60.9818 10.0352 61.5957C10.1953 62.2096 10.3555 62.8102 10.5156 63.3975C10.6758 63.9847 10.8226 64.5719 10.9561 65.1592C11.1162 65.7464 11.1963 66.347 11.1963 66.9609C11.1963 67.1211 11.1829 67.2679 11.1562 67.4014C11.1562 67.5615 11.1429 67.7217 11.1162 67.8818C11.1963 68.1221 11.3298 68.3223 11.5166 68.4824C11.7035 68.6426 11.8636 68.8294 11.9971 69.043C12.0238 69.1764 12.0371 69.2965 12.0371 69.4033V69.8037C12.0371 70.2575 11.9837 70.6579 11.877 71.0049C11.7702 71.3519 11.6367 71.6722 11.4766 71.9658C11.3164 72.2861 11.1429 72.5931 10.9561 72.8867C10.7692 73.207 10.5957 73.554 10.4355 73.9277C10.1686 73.9811 9.95508 74.0078 9.79492 74.0078C9.39453 74.0078 9.06087 73.901 8.79395 73.6875C8.55371 73.474 8.34017 73.207 8.15332 72.8867C7.96647 72.5931 7.77962 72.2861 7.59277 71.9658C7.43262 71.6455 7.23242 71.3786 6.99219 71.165C7.01888 71.0316 7.03223 70.9115 7.03223 70.8047C7.05892 70.6979 7.07227 70.5778 7.07227 70.4443C7.07227 69.9105 6.97884 69.39 6.79199 68.8828C6.63184 68.3757 6.44499 67.8952 6.23145 67.4414C6.20475 66.5339 6.11133 65.6396 5.95117 64.7588C5.79102 63.8779 5.56413 63.0104 5.27051 62.1562C5.32389 61.8359 5.36393 61.529 5.39062 61.2354C5.41732 60.915 5.43066 60.6081 5.43066 60.3145C5.43066 59.5404 5.39062 58.7663 5.31055 57.9922C5.23047 57.2181 5.21712 56.444 5.27051 55.6699C5.19043 55.5365 5.11035 55.4297 5.03027 55.3496C4.9502 55.2428 4.88346 55.1227 4.83008 54.9893H4.66992C4.26953 54.9893 3.88249 55.0293 3.50879 55.1094C3.13509 55.1628 2.76139 55.1895 2.3877 55.1895C2.25423 55.1895 2.13411 55.1895 2.02734 55.1895C1.92057 55.1628 1.80046 55.1361 1.66699 55.1094C1.37337 54.8158 1.14648 54.4821 0.986328 54.1084C0.826172 53.7347 0.746094 53.3477 0.746094 52.9473C0.746094 52.36 0.90625 51.8262 1.22656 51.3457C1.89388 51.1855 2.54785 50.9987 3.18848 50.7852C3.85579 50.5449 4.49642 50.2646 5.11035 49.9443C5.19043 49.5439 5.23047 49.1436 5.23047 48.7432C5.25716 48.3428 5.40397 47.9691 5.6709 47.6221C5.59082 47.4085 5.45736 47.2217 5.27051 47.0615C5.11035 46.8747 5.03027 46.6611 5.03027 46.4209C5.03027 46.2874 5.05697 46.1139 5.11035 45.9004C5.37728 45.6068 5.56413 45.2331 5.6709 44.7793C5.77767 44.3255 5.87109 43.8451 5.95117 43.3379C6.03125 42.8307 6.11133 42.3236 6.19141 41.8164C6.29818 41.3092 6.47168 40.8555 6.71191 40.4551C6.65853 40.2415 6.61849 40.0146 6.5918 39.7744C6.5651 39.5075 6.55176 39.2673 6.55176 39.0537C6.55176 38.7334 6.5651 38.4131 6.5918 38.0928C6.64518 37.7458 6.72526 37.4255 6.83203 37.1318C6.53841 36.7848 6.29818 36.3844 6.11133 35.9307C5.92448 35.4502 5.83105 34.9831 5.83105 34.5293C5.83105 33.6484 6.25814 33.0879 7.1123 32.8477C7.08561 32.7409 7.05892 32.6475 7.03223 32.5674C7.03223 32.4873 7.03223 32.4072 7.03223 32.3271C7.03223 32.0869 7.09896 31.86 7.23242 31.6465C7.36589 31.4329 7.47266 31.2194 7.55273 31.0059C7.41927 30.6589 7.35254 30.3652 7.35254 30.125C7.35254 29.9115 7.39258 29.7246 7.47266 29.5645C7.55273 29.3776 7.61947 29.1774 7.67285 28.9639C7.75293 28.6969 7.80632 28.4567 7.83301 28.2432C7.88639 28.0296 7.96647 27.8428 8.07324 27.6826C8.18001 27.5225 8.31348 27.4023 8.47363 27.3223C8.66048 27.2422 8.94076 27.2021 9.31445 27.2021C9.90169 27.2021 10.4622 27.389 10.9961 27.7627C11.5566 28.1097 11.9837 28.5101 12.2773 28.9639C12.571 28.9372 12.8245 28.8838 13.0381 28.8037C13.2783 28.6969 13.4919 28.6035 13.6787 28.5234C13.8923 28.4434 14.1058 28.3766 14.3193 28.3232C14.5596 28.2432 14.8398 28.2165 15.1602 28.2432C15.2402 28.0563 15.3737 27.9362 15.5605 27.8828C15.7741 27.8027 15.9876 27.7493 16.2012 27.7227C16.4147 27.6693 16.6149 27.6025 16.8018 27.5225C16.9886 27.4424 17.1087 27.2956 17.1621 27.082C17.2689 27.1621 17.389 27.2021 17.5225 27.2021C17.6559 27.2021 17.7894 27.1888 17.9229 27.1621C18.0563 27.1087 18.2031 27.082 18.3633 27.082C18.5234 27.082 18.6569 27.1354 18.7637 27.2422C19.4577 26.8685 20.1917 26.6016 20.9658 26.4414C21.7666 26.2546 22.554 26.1478 23.3281 26.1211C25.1699 25.1068 27.1051 24.4128 29.1338 24.0391C31.1891 23.6654 33.2445 23.4785 35.2998 23.4785C35.5934 23.4785 35.8737 23.4785 36.1406 23.4785C36.4342 23.4518 36.7145 23.4652 36.9814 23.5186C37.2751 23.5719 37.5954 23.6654 37.9424 23.7988C38.3161 23.9323 38.6764 24.0924 39.0234 24.2793C39.3971 24.4661 39.7441 24.6797 40.0645 24.9199C40.3848 25.1335 40.6517 25.3337 40.8652 25.5205C41.0788 26.001 41.1855 26.4681 41.1855 26.9219C41.1855 27.1354 41.1722 27.349 41.1455 27.5625C41.1188 27.7493 41.1055 27.9495 41.1055 28.1631C41.1055 28.4834 41.1722 28.8438 41.3057 29.2441C41.2256 29.2174 41.0921 29.2041 40.9053 29.2041C40.665 29.2041 40.4648 29.2575 40.3047 29.3643C40.1445 29.471 39.9977 29.5911 39.8643 29.7246C39.7308 29.8581 39.5973 29.9782 39.4639 30.085C39.3571 30.1917 39.2503 30.2451 39.1436 30.2451C38.93 30.2451 38.7432 30.2051 38.583 30.125C38.4495 30.0449 38.3027 29.9648 38.1426 29.8848C38.0091 29.778 37.8623 29.6979 37.7021 29.6445C37.542 29.5645 37.3551 29.5378 37.1416 29.5645V29.4043C37.1416 29.1107 37.0482 28.9238 36.8613 28.8438C36.6745 28.737 36.5277 28.5902 36.4209 28.4033C36.0205 28.3766 35.6201 28.3232 35.2197 28.2432C34.846 28.1631 34.459 28.123 34.0586 28.123C33.5247 28.123 33.111 28.3099 32.8174 28.6836C32.6839 28.6302 32.5638 28.5635 32.457 28.4834C32.377 28.4033 32.2568 28.3766 32.0967 28.4033H31.9766C30.5352 28.4033 29.1204 28.5635 27.7324 28.8838C26.3444 29.1774 24.9697 29.5511 23.6084 30.0049C22.2471 30.432 20.8857 30.8991 19.5244 31.4062C18.1631 31.9134 16.8018 32.3538 15.4404 32.7275C15.1201 33.1546 14.7865 33.4749 14.4395 33.6885C14.0924 33.8753 13.7454 34.0355 13.3984 34.1689C13.0781 34.3024 12.7578 34.4359 12.4375 34.5693C12.1172 34.7028 11.8369 34.9163 11.5967 35.21C11.3831 35.5036 11.2096 35.9173 11.0762 36.4512C10.9694 36.9583 10.9427 37.6657 10.9961 38.5732C10.8626 38.7334 10.7826 38.9069 10.7559 39.0938C10.7292 39.2806 10.7025 39.4674 10.6758 39.6543C10.6491 39.8145 10.609 39.9746 10.5557 40.1348C10.5023 40.2949 10.4089 40.4417 10.2754 40.5752C10.3288 40.8421 10.3688 41.109 10.3955 41.376C10.4222 41.6429 10.4355 41.9098 10.4355 42.1768C10.4355 43.2979 10.2487 44.3923 9.875 45.46C10.0085 45.6735 10.0752 45.9137 10.0752 46.1807C10.0752 46.4743 10.0352 46.7412 9.95508 46.9814C9.875 47.2217 9.83496 47.4886 9.83496 47.7822C9.83496 48.0758 9.88835 48.3161 9.99512 48.5029C10.1553 48.5029 10.2487 48.5563 10.2754 48.6631H10.5156C10.9961 48.6631 11.4098 48.543 11.7568 48.3027C12.1038 48.0625 12.4775 47.9424 12.8779 47.9424C12.958 47.9424 13.0514 47.9691 13.1582 48.0225C13.265 48.0758 13.3584 48.1025 13.4385 48.1025C13.6253 48.1025 13.7054 48.0358 13.6787 47.9023C13.652 47.7689 13.7188 47.6755 13.8789 47.6221L15.3203 47.3818C16.2279 47.2217 17.082 47.0348 17.8828 46.8213C18.7103 46.5811 19.5244 46.234 20.3252 45.7803C20.512 45.8604 20.7256 45.9004 20.9658 45.9004C21.1794 45.9004 21.4062 45.8737 21.6465 45.8203C21.8867 45.7402 22.1136 45.7002 22.3271 45.7002C22.514 45.7002 22.6608 45.7269 22.7676 45.7803C22.9277 45.6735 23.1279 45.5934 23.3682 45.54C23.6084 45.46 23.7419 45.2998 23.7686 45.0596H23.8486C23.9554 45.0596 24.0355 45.0863 24.0889 45.1396C24.1423 45.193 24.2223 45.2197 24.3291 45.2197H24.4893C25.0498 44.9528 25.557 44.7526 26.0107 44.6191C26.7581 44.4323 27.5589 44.2721 28.4131 44.1387C29.2673 43.9785 30.028 43.7116 30.6953 43.3379C31.4694 43.3379 32.2168 43.2178 32.9375 42.9775C33.6849 42.7106 34.4323 42.5771 35.1797 42.5771C35.5267 42.5771 35.847 42.6305 36.1406 42.7373C36.4076 42.5505 36.7145 42.417 37.0615 42.3369C37.4352 42.2568 37.7422 42.11 37.9824 41.8965C38.1426 41.9232 38.3027 41.9499 38.4629 41.9766C38.6497 41.9766 38.8366 41.9766 39.0234 41.9766C39.8242 41.9766 40.585 41.8698 41.3057 41.6562C42.0531 41.416 42.8138 41.2425 43.5879 41.1357C43.7747 41.3493 43.8949 41.5762 43.9482 41.8164C44.0283 42.0299 44.0684 42.2568 44.0684 42.4971ZM62.5264 40.5352V40.6953C62.3395 40.7487 62.2461 40.8822 62.2461 41.0957C61.9525 41.2292 61.6455 41.3359 61.3252 41.416C61.0049 41.4694 60.6979 41.5628 60.4043 41.6963C60.1107 41.6696 59.8037 41.6562 59.4834 41.6562C59.1898 41.6296 58.8962 41.6162 58.6025 41.6162C57.8018 41.6162 57.001 41.6429 56.2002 41.6963C55.3994 41.7497 54.5986 41.7497 53.7979 41.6963C53.4242 41.9098 53.0104 42.0833 52.5566 42.2168C52.1296 42.3236 51.7158 42.377 51.3154 42.377C50.9951 42.377 50.7148 42.3369 50.4746 42.2568C49.834 42.5771 49.1266 42.8441 48.3525 43.0576C47.6051 43.2712 46.8444 43.4847 46.0703 43.6982C45.2962 43.8851 44.5488 44.112 43.8281 44.3789C43.1341 44.6191 42.5202 44.9661 41.9863 45.4199C41.9329 45.7936 41.8929 46.1673 41.8662 46.541C41.8395 46.888 41.8262 47.235 41.8262 47.582C41.8262 47.9557 41.8395 48.3027 41.8662 48.623C41.9196 48.9434 42.013 49.2637 42.1465 49.584C42.2799 49.6374 42.4268 49.6774 42.5869 49.7041C42.7738 49.7308 42.9339 49.7441 43.0674 49.7441C43.2008 49.7441 43.3343 49.7308 43.4678 49.7041C43.6012 49.6507 43.6947 49.5573 43.748 49.4238C44.1484 49.3704 44.5488 49.3571 44.9492 49.3838C45.3496 49.3838 45.75 49.3838 46.1504 49.3838C46.5508 49.3838 46.9378 49.3704 47.3115 49.3438C47.7119 49.3171 48.099 49.2503 48.4727 49.1436C48.8997 49.0368 49.3135 48.9701 49.7139 48.9434C50.141 48.9167 50.5547 48.89 50.9551 48.8633C51.3555 48.8366 51.7692 48.7965 52.1963 48.7432C52.6234 48.6631 53.0638 48.5163 53.5176 48.3027C53.8646 48.4362 54.2116 48.5029 54.5586 48.5029C54.9323 48.5029 55.2926 48.5296 55.6396 48.583C55.8265 48.7165 55.9733 48.8633 56.0801 49.0234C56.2135 49.1836 56.2803 49.3704 56.2803 49.584C56.2803 49.9577 56.1468 50.3314 55.8799 50.7051C55.613 51.0788 55.3994 51.4258 55.2393 51.7461H54.7988C54.1582 51.7461 53.5309 51.8395 52.917 52.0264C52.3298 52.1865 51.7292 52.3867 51.1152 52.627C50.528 52.8405 49.9274 53.0407 49.3135 53.2275C48.7262 53.3877 48.1123 53.4678 47.4717 53.4678C47.3649 53.4678 47.2982 53.5345 47.2715 53.668C47.2715 53.7747 47.2448 53.8548 47.1914 53.9082C47.0579 53.8815 46.8577 53.8682 46.5908 53.8682C45.9769 53.8682 45.3896 53.9349 44.8291 54.0684C44.2686 54.2018 43.6947 54.2686 43.1074 54.2686C42.9473 54.2686 42.7871 54.2686 42.627 54.2686C42.4668 54.2419 42.3066 54.2152 42.1465 54.1885C42.013 54.402 41.8395 54.5488 41.626 54.6289C41.4124 54.6823 41.2122 54.7891 41.0254 54.9492C40.9453 55.1895 40.8919 55.4831 40.8652 55.8301C40.8652 56.1771 40.8519 56.5374 40.8252 56.9111C40.8252 57.2581 40.7985 57.5918 40.7451 57.9121C40.6917 58.2324 40.585 58.486 40.4248 58.6729C40.4515 58.8063 40.5583 58.8597 40.7451 58.833C40.932 58.7796 41.0254 58.8597 41.0254 59.0732C41.0254 59.3135 40.9987 59.5671 40.9453 59.834C40.8919 60.1009 40.8652 60.3678 40.8652 60.6348C40.8652 61.1419 40.9186 61.7025 41.0254 62.3164C41.1589 62.9036 41.3457 63.4508 41.5859 63.958C41.8529 64.4652 42.1999 64.8923 42.627 65.2393C43.054 65.5596 43.5879 65.7197 44.2285 65.7197C44.6556 65.7197 45.056 65.6396 45.4297 65.4795C45.8034 65.3193 46.1104 65.0524 46.3506 64.6787L46.5508 64.6387C46.6576 64.6387 46.751 64.652 46.8311 64.6787C46.9378 64.7054 47.0446 64.7188 47.1514 64.7188C47.3115 64.7188 47.5117 64.6253 47.752 64.4385C48.0189 64.2249 48.2992 63.9847 48.5928 63.7178C48.9131 63.4508 49.2334 63.1973 49.5537 62.957C49.874 62.6901 50.181 62.5033 50.4746 62.3965C50.6615 62.0228 50.835 61.6491 50.9951 61.2754C51.182 60.9017 51.4489 60.6081 51.7959 60.3945V59.2334C52.0628 58.9398 52.3431 58.6729 52.6367 58.4326C52.957 58.1924 53.1973 57.8854 53.3574 57.5117C53.4909 57.5651 53.611 57.6051 53.7178 57.6318C53.8512 57.6585 53.9847 57.6719 54.1182 57.6719C54.2516 57.6719 54.3851 57.6585 54.5186 57.6318C54.6787 57.6051 54.8255 57.5651 54.959 57.5117C55.1725 57.8053 55.3327 58.139 55.4395 58.5127C55.5729 58.8597 55.7331 59.1934 55.9199 59.5137C55.6797 59.9941 55.3994 60.568 55.0791 61.2354C54.7588 61.9027 54.4118 62.57 54.0381 63.2373C53.6644 63.9046 53.264 64.5452 52.8369 65.1592C52.4365 65.7464 52.0361 66.2002 51.6357 66.5205C51.5557 66.6006 51.3822 66.694 51.1152 66.8008C50.8216 67.0143 50.5547 67.2145 50.3145 67.4014C50.0742 67.6149 49.8473 67.8551 49.6338 68.1221C48.8597 68.3623 48.1123 68.6826 47.3916 69.083C46.6976 69.4834 46.0036 69.8704 45.3096 70.2441C44.9893 70.1641 44.6423 70.124 44.2686 70.124C43.9482 70.124 43.6279 70.1374 43.3076 70.1641C42.9873 70.2174 42.6403 70.2441 42.2666 70.2441C42.1598 70.1107 41.9997 70.0173 41.7861 69.9639C41.5993 69.9372 41.5326 69.8037 41.5859 69.5635C40.6784 69.5101 39.9443 69.2565 39.3838 68.8027C38.8232 68.3757 38.3428 67.8418 37.9424 67.2012C37.5687 66.5605 37.2617 65.8665 37.0215 65.1191C36.7812 64.3717 36.5277 63.651 36.2607 62.957V62.8369C36.2607 62.7035 36.3141 62.6234 36.4209 62.5967C36.5277 62.57 36.5811 62.4899 36.5811 62.3564C36.5811 62.3031 36.5677 62.263 36.541 62.2363C36.4609 61.9427 36.3942 61.6891 36.3408 61.4756C36.2874 61.262 36.2607 61.0085 36.2607 60.7148C36.2607 60.2878 36.2874 59.874 36.3408 59.4736C36.3942 59.0465 36.4209 58.6195 36.4209 58.1924C36.4209 57.7653 36.3675 57.3916 36.2607 57.0713C36.3675 56.9378 36.4609 56.7643 36.541 56.5508C36.5944 56.3105 36.6344 56.0703 36.6611 55.8301C36.6878 55.5898 36.7012 55.3496 36.7012 55.1094C36.7279 54.8691 36.7679 54.6556 36.8213 54.4688C36.7145 54.1751 36.6211 53.9215 36.541 53.708C36.4609 53.4678 36.4209 53.1875 36.4209 52.8672V52.5869C36.6878 52.1331 36.9147 51.666 37.1016 51.1855C37.2884 50.7051 37.4886 50.2113 37.7021 49.7041V49.584C37.7021 48.8099 37.6755 48.0358 37.6221 47.2617C37.5687 46.4876 37.542 45.7135 37.542 44.9395V44.1787C37.542 43.9118 37.5553 43.6582 37.582 43.418C37.7956 43.3112 37.9557 43.1644 38.0625 42.9775C38.1693 42.7907 38.3294 42.6439 38.543 42.5371H39.8643L40.1045 42.1367C40.1846 42.0033 40.238 41.8564 40.2646 41.6963C40.5583 41.6162 40.8385 41.5094 41.1055 41.376C41.3991 41.2158 41.666 41.0557 41.9062 40.8955C42.2799 40.682 42.6136 40.4951 42.9072 40.335C43.2275 40.1481 43.5345 40.0013 43.8281 39.8945C44.1484 39.7611 44.4821 39.6543 44.8291 39.5742C45.1761 39.4941 45.5765 39.4274 46.0303 39.374C46.2438 39.374 46.3773 39.334 46.4307 39.2539C46.5107 39.1738 46.6175 39.0804 46.751 38.9736C47.0713 39.027 47.3916 39.0804 47.7119 39.1338C48.0322 39.1605 48.3525 39.1738 48.6729 39.1738C49.3135 39.1738 49.9141 39.0537 50.4746 38.8135C51.2754 38.8135 52.0628 38.8001 52.8369 38.7734C53.6377 38.7467 54.4385 38.7334 55.2393 38.7334C55.9333 38.7334 56.6273 38.7601 57.3213 38.8135C58.0153 38.8669 58.696 38.9603 59.3633 39.0938C59.6035 39.0137 59.8704 38.9736 60.1641 38.9736C60.4844 38.9736 60.8047 39.0137 61.125 39.0938C61.472 39.1471 61.8057 39.1471 62.126 39.0938C62.1527 39.3874 62.2194 39.641 62.3262 39.8545C62.4596 40.0413 62.5264 40.2682 62.5264 40.5352ZM106.249 56.0303C106.142 56.484 105.929 56.8444 105.608 57.1113C105.315 57.3516 104.968 57.5384 104.567 57.6719C104.167 57.8053 103.74 57.8988 103.286 57.9521C102.859 58.0055 102.472 58.0456 102.125 58.0723C101.751 58.2591 101.418 58.4727 101.124 58.7129C100.83 58.9264 100.523 59.14 100.203 59.3535C97.8542 59.6471 95.5319 60.0075 93.2363 60.4346C90.9408 60.8617 88.6185 61.222 86.2695 61.5156C85.9492 61.7292 85.5355 61.876 85.0283 61.9561C84.5212 62.0094 83.9873 62.0628 83.4268 62.1162C82.8929 62.1429 82.359 62.2096 81.8252 62.3164C81.2913 62.3965 80.8242 62.5566 80.4238 62.7969C78.6888 62.877 77.0072 63.1706 75.3789 63.6777C75.0853 63.5977 74.7783 63.5309 74.458 63.4775C74.1644 63.4242 73.8708 63.3975 73.5771 63.3975C73.3636 63.3975 73.1234 63.4242 72.8564 63.4775C72.5895 63.5042 72.376 63.6243 72.2158 63.8379C71.5752 63.3307 70.8145 63.1439 69.9336 63.2773C69.2129 62.957 68.5723 62.5566 68.0117 62.0762C67.4779 61.5957 67.0641 60.9818 66.7705 60.2344C66.7972 59.8073 66.7972 59.487 66.7705 59.2734C66.7438 59.0332 66.557 58.7796 66.21 58.5127C66.21 58.3258 66.2633 58.179 66.3701 58.0723C66.5036 57.9655 66.5837 57.8187 66.6104 57.6318C66.5036 57.445 66.4502 57.2181 66.4502 56.9512C66.4502 56.4974 66.5303 56.0436 66.6904 55.5898C66.8506 55.1094 66.8773 54.6423 66.7705 54.1885C67.1442 53.5745 67.5713 53.0007 68.0518 52.4668C68.5322 51.9062 69.0127 51.3724 69.4932 50.8652C70.0003 50.3314 70.4941 49.7975 70.9746 49.2637C71.4818 48.7298 71.9489 48.1693 72.376 47.582C72.8831 47.4219 73.3369 47.1816 73.7373 46.8613C74.1644 46.5143 74.5648 46.154 74.9385 45.7803C75.3389 45.4066 75.7393 45.0462 76.1396 44.6992C76.54 44.3522 77.0072 44.0719 77.541 43.8584C77.5944 43.6982 77.6745 43.5648 77.7812 43.458C77.9147 43.3245 78.0482 43.2044 78.1816 43.0977C78.3151 42.9909 78.4352 42.8708 78.542 42.7373C78.6755 42.6038 78.7689 42.4437 78.8223 42.2568H78.4619C77.2607 42.2568 76.0596 42.3369 74.8584 42.4971C73.6572 42.6305 72.4561 42.804 71.2549 43.0176C70.0804 43.2044 68.9059 43.4046 67.7314 43.6182C66.557 43.8317 65.3691 44.0052 64.168 44.1387C63.7142 44.3789 63.2204 44.5924 62.6865 44.7793C62.1527 44.9661 61.6188 45.153 61.085 45.3398C60.5778 45.5267 60.084 45.7402 59.6035 45.9805C59.0964 46.2207 58.6559 46.5143 58.2822 46.8613C58.2021 46.888 58.082 46.9014 57.9219 46.9014C57.6283 46.9014 57.3747 46.848 57.1611 46.7412C56.9476 46.6077 56.7074 46.5143 56.4404 46.4609C56.387 46.0339 56.307 45.6335 56.2002 45.2598C56.0667 44.8594 56 44.4456 56 44.0186C56 43.6715 56.0534 43.3779 56.1602 43.1377C56.5339 43.1377 56.8008 43.0176 56.9609 42.7773C57.0944 42.5371 57.3079 42.3236 57.6016 42.1367C57.6816 42.2168 57.7617 42.2568 57.8418 42.2568C57.9753 42.2568 58.0954 42.2035 58.2021 42.0967C58.3089 41.9899 58.4424 41.8831 58.6025 41.7764C58.7627 41.6696 58.9495 41.5762 59.1631 41.4961C59.3766 41.416 59.6569 41.3893 60.0039 41.416C60.8047 40.9889 61.5521 40.722 62.2461 40.6152C62.9668 40.5085 63.7542 40.3883 64.6084 40.2549C64.8219 40.2015 64.9688 40.1348 65.0488 40.0547C65.1289 39.9746 65.2223 39.8545 65.3291 39.6943L66.1699 39.7344C67.3177 39.7878 68.4655 39.721 69.6133 39.5342C70.7611 39.3206 71.8955 39.0938 73.0166 38.8535C74.1644 38.6133 75.3122 38.4131 76.46 38.2529C77.6344 38.0661 78.8089 38.026 79.9834 38.1328C80.277 37.9993 80.5706 37.9193 80.8643 37.8926C81.1846 37.8659 81.5049 37.8525 81.8252 37.8525C82.2523 37.8525 82.7194 37.8926 83.2266 37.9727C83.7337 38.0527 84.2008 38.1995 84.6279 38.4131C85.0817 38.6266 85.4421 38.9202 85.709 39.2939C86.0026 39.641 86.1494 40.0814 86.1494 40.6152C86.1494 40.9089 86.0827 41.1758 85.9492 41.416C85.8158 41.6562 85.6556 41.8831 85.4688 42.0967C85.2819 42.3102 85.0817 42.5238 84.8682 42.7373C84.6546 42.9242 84.4544 43.111 84.2676 43.2979C83.974 43.6182 83.6937 43.9652 83.4268 44.3389C83.1865 44.6859 82.8929 45.0062 82.5459 45.2998C82.359 45.2731 82.2122 45.3132 82.1055 45.4199C82.0254 45.5267 81.8919 45.5801 81.7051 45.5801C81.3581 45.7402 81.1579 46.0339 81.1045 46.4609C80.3838 46.7546 79.6898 47.1016 79.0225 47.502C78.3551 47.9023 77.8079 48.4495 77.3809 49.1436C76.8203 49.4906 76.2865 49.891 75.7793 50.3447C75.2988 50.7718 74.8317 51.2256 74.3779 51.7061C73.9242 52.1865 73.4704 52.6803 73.0166 53.1875C72.5895 53.668 72.1357 54.1351 71.6553 54.5889C71.6019 54.9893 71.5085 55.363 71.375 55.71C71.2415 56.057 71.0947 56.4173 70.9346 56.791C70.9346 57.0846 71.028 57.3382 71.2148 57.5518C71.4017 57.7653 71.4951 58.0456 71.4951 58.3926C72.1624 58.526 72.8164 58.6328 73.457 58.7129C74.1243 58.7663 74.805 58.793 75.499 58.793C76.1663 58.793 76.8337 58.7529 77.501 58.6729C78.1683 58.5661 78.7956 58.3659 79.3828 58.0723C79.7832 58.179 80.1969 58.2324 80.624 58.2324C81.2113 58.2324 81.7718 58.179 82.3057 58.0723C82.8662 57.9388 83.4268 57.8854 83.9873 57.9121C84.6546 57.6719 85.3353 57.5117 86.0293 57.4316C86.75 57.3249 87.4574 57.2448 88.1514 57.1914C88.8454 57.1113 89.5394 57.0179 90.2334 56.9111C90.9541 56.8044 91.6481 56.6042 92.3154 56.3105C92.6891 56.3906 93.0361 56.404 93.3564 56.3506C93.6768 56.2972 94.0238 56.2705 94.3975 56.2705C94.6644 56.2705 94.9847 56.3506 95.3584 56.5107C95.7855 56.2972 96.2259 56.1104 96.6797 55.9502C97.1602 55.79 97.6406 55.71 98.1211 55.71C98.3079 55.71 98.4948 55.7233 98.6816 55.75C98.8685 55.7767 99.042 55.8301 99.2021 55.9102C99.2555 55.8835 99.389 55.8301 99.6025 55.75C99.8161 55.6699 100.043 55.5898 100.283 55.5098C100.523 55.4297 100.75 55.363 100.964 55.3096C101.177 55.2295 101.311 55.1895 101.364 55.1895C101.578 55.1895 101.671 55.2562 101.645 55.3896C101.645 55.4964 101.711 55.5498 101.845 55.5498C102.299 55.5498 102.739 55.4697 103.166 55.3096C103.593 55.1227 104.034 55.0293 104.487 55.0293C104.674 55.0293 104.848 55.0426 105.008 55.0693C105.168 55.096 105.355 55.1361 105.568 55.1895C105.675 55.3496 105.769 55.5231 105.849 55.71C105.929 55.8701 106.062 55.9769 106.249 56.0303ZM138.48 56.0303C138.374 56.484 138.16 56.8444 137.84 57.1113C137.546 57.3516 137.199 57.5384 136.799 57.6719C136.398 57.8053 135.971 57.8988 135.518 57.9521C135.09 58.0055 134.703 58.0456 134.356 58.0723C133.983 58.2591 133.649 58.4727 133.355 58.7129C133.062 58.9264 132.755 59.14 132.435 59.3535C130.086 59.6471 127.763 60.0075 125.468 60.4346C123.172 60.8617 120.85 61.222 118.501 61.5156C118.181 61.7292 117.767 61.876 117.26 61.9561C116.753 62.0094 116.219 62.0628 115.658 62.1162C115.124 62.1429 114.59 62.2096 114.057 62.3164C113.523 62.3965 113.056 62.5566 112.655 62.7969C110.92 62.877 109.239 63.1706 107.61 63.6777C107.317 63.5977 107.01 63.5309 106.689 63.4775C106.396 63.4242 106.102 63.3975 105.809 63.3975C105.595 63.3975 105.355 63.4242 105.088 63.4775C104.821 63.5042 104.607 63.6243 104.447 63.8379C103.807 63.3307 103.046 63.1439 102.165 63.2773C101.444 62.957 100.804 62.5566 100.243 62.0762C99.7093 61.5957 99.2956 60.9818 99.002 60.2344C99.0286 59.8073 99.0286 59.487 99.002 59.2734C98.9753 59.0332 98.7884 58.7796 98.4414 58.5127C98.4414 58.3258 98.4948 58.179 98.6016 58.0723C98.735 57.9655 98.8151 57.8187 98.8418 57.6318C98.735 57.445 98.6816 57.2181 98.6816 56.9512C98.6816 56.4974 98.7617 56.0436 98.9219 55.5898C99.082 55.1094 99.1087 54.6423 99.002 54.1885C99.3757 53.5745 99.8027 53.0007 100.283 52.4668C100.764 51.9062 101.244 51.3724 101.725 50.8652C102.232 50.3314 102.726 49.7975 103.206 49.2637C103.713 48.7298 104.18 48.1693 104.607 47.582C105.115 47.4219 105.568 47.1816 105.969 46.8613C106.396 46.5143 106.796 46.154 107.17 45.7803C107.57 45.4066 107.971 45.0462 108.371 44.6992C108.771 44.3522 109.239 44.0719 109.772 43.8584C109.826 43.6982 109.906 43.5648 110.013 43.458C110.146 43.3245 110.28 43.2044 110.413 43.0977C110.547 42.9909 110.667 42.8708 110.773 42.7373C110.907 42.6038 111 42.4437 111.054 42.2568H110.693C109.492 42.2568 108.291 42.3369 107.09 42.4971C105.889 42.6305 104.688 42.804 103.486 43.0176C102.312 43.2044 101.137 43.4046 99.9629 43.6182C98.7884 43.8317 97.6006 44.0052 96.3994 44.1387C95.9456 44.3789 95.4518 44.5924 94.918 44.7793C94.3841 44.9661 93.8503 45.153 93.3164 45.3398C92.8092 45.5267 92.3154 45.7402 91.835 45.9805C91.3278 46.2207 90.8874 46.5143 90.5137 46.8613C90.4336 46.888 90.3135 46.9014 90.1533 46.9014C89.8597 46.9014 89.6061 46.848 89.3926 46.7412C89.179 46.6077 88.9388 46.5143 88.6719 46.4609C88.6185 46.0339 88.5384 45.6335 88.4316 45.2598C88.2982 44.8594 88.2314 44.4456 88.2314 44.0186C88.2314 43.6715 88.2848 43.3779 88.3916 43.1377C88.7653 43.1377 89.0322 43.0176 89.1924 42.7773C89.3258 42.5371 89.5394 42.3236 89.833 42.1367C89.9131 42.2168 89.9932 42.2568 90.0732 42.2568C90.2067 42.2568 90.3268 42.2035 90.4336 42.0967C90.5404 41.9899 90.6738 41.8831 90.834 41.7764C90.9941 41.6696 91.181 41.5762 91.3945 41.4961C91.6081 41.416 91.8883 41.3893 92.2354 41.416C93.0361 40.9889 93.7835 40.722 94.4775 40.6152C95.1982 40.5085 95.9857 40.3883 96.8398 40.2549C97.0534 40.2015 97.2002 40.1348 97.2803 40.0547C97.3604 39.9746 97.4538 39.8545 97.5605 39.6943L98.4014 39.7344C99.5492 39.7878 100.697 39.721 101.845 39.5342C102.993 39.3206 104.127 39.0938 105.248 38.8535C106.396 38.6133 107.544 38.4131 108.691 38.2529C109.866 38.0661 111.04 38.026 112.215 38.1328C112.508 37.9993 112.802 37.9193 113.096 37.8926C113.416 37.8659 113.736 37.8525 114.057 37.8525C114.484 37.8525 114.951 37.8926 115.458 37.9727C115.965 38.0527 116.432 38.1995 116.859 38.4131C117.313 38.6266 117.674 38.9202 117.94 39.2939C118.234 39.641 118.381 40.0814 118.381 40.6152C118.381 40.9089 118.314 41.1758 118.181 41.416C118.047 41.6562 117.887 41.8831 117.7 42.0967C117.513 42.3102 117.313 42.5238 117.1 42.7373C116.886 42.9242 116.686 43.111 116.499 43.2979C116.205 43.6182 115.925 43.9652 115.658 44.3389C115.418 44.6859 115.124 45.0062 114.777 45.2998C114.59 45.2731 114.444 45.3132 114.337 45.4199C114.257 45.5267 114.123 45.5801 113.937 45.5801C113.59 45.7402 113.389 46.0339 113.336 46.4609C112.615 46.7546 111.921 47.1016 111.254 47.502C110.587 47.9023 110.039 48.4495 109.612 49.1436C109.052 49.4906 108.518 49.891 108.011 50.3447C107.53 50.7718 107.063 51.2256 106.609 51.7061C106.156 52.1865 105.702 52.6803 105.248 53.1875C104.821 53.668 104.367 54.1351 103.887 54.5889C103.833 54.9893 103.74 55.363 103.606 55.71C103.473 56.057 103.326 56.4173 103.166 56.791C103.166 57.0846 103.259 57.3382 103.446 57.5518C103.633 57.7653 103.727 58.0456 103.727 58.3926C104.394 58.526 105.048 58.6328 105.688 58.7129C106.356 58.7663 107.036 58.793 107.73 58.793C108.398 58.793 109.065 58.7529 109.732 58.6729C110.4 58.5661 111.027 58.3659 111.614 58.0723C112.015 58.179 112.428 58.2324 112.855 58.2324C113.443 58.2324 114.003 58.179 114.537 58.0723C115.098 57.9388 115.658 57.8854 116.219 57.9121C116.886 57.6719 117.567 57.5117 118.261 57.4316C118.981 57.3249 119.689 57.2448 120.383 57.1914C121.077 57.1113 121.771 57.0179 122.465 56.9111C123.186 56.8044 123.88 56.6042 124.547 56.3105C124.921 56.3906 125.268 56.404 125.588 56.3506C125.908 56.2972 126.255 56.2705 126.629 56.2705C126.896 56.2705 127.216 56.3506 127.59 56.5107C128.017 56.2972 128.457 56.1104 128.911 55.9502C129.392 55.79 129.872 55.71 130.353 55.71C130.539 55.71 130.726 55.7233 130.913 55.75C131.1 55.7767 131.273 55.8301 131.434 55.9102C131.487 55.8835 131.62 55.8301 131.834 55.75C132.048 55.6699 132.274 55.5898 132.515 55.5098C132.755 55.4297 132.982 55.363 133.195 55.3096C133.409 55.2295 133.542 55.1895 133.596 55.1895C133.809 55.1895 133.903 55.2562 133.876 55.3896C133.876 55.4964 133.943 55.5498 134.076 55.5498C134.53 55.5498 134.97 55.4697 135.397 55.3096C135.825 55.1227 136.265 55.0293 136.719 55.0293C136.906 55.0293 137.079 55.0426 137.239 55.0693C137.399 55.096 137.586 55.1361 137.8 55.1895C137.907 55.3496 138 55.5231 138.08 55.71C138.16 55.8701 138.294 55.9769 138.48 56.0303ZM150.412 42.8174C150.252 43.0576 150.159 43.3245 150.132 43.6182C150.105 43.9118 150.092 44.1787 150.092 44.4189C150.092 44.7393 150.092 45.0596 150.092 45.3799C150.118 45.6735 150.132 45.9671 150.132 46.2607V46.8613C150.078 47.0482 149.998 47.235 149.892 47.4219C149.785 47.6087 149.705 47.7956 149.651 47.9824C149.278 48.9701 149.091 49.9577 149.091 50.9453V51.0254C148.957 51.3457 148.824 51.6393 148.69 51.9062C148.584 52.1732 148.477 52.4401 148.37 52.707C148.263 52.9473 148.183 53.2142 148.13 53.5078C148.076 53.7747 148.063 54.0951 148.09 54.4688C147.716 55.403 147.222 56.2572 146.608 57.0312C145.994 57.7786 145.394 58.5527 144.807 59.3535C144.246 59.5671 143.726 59.8473 143.245 60.1943C142.791 60.5413 142.351 60.9284 141.924 61.3555C141.096 61.6224 140.282 61.9294 139.481 62.2764C138.681 62.6234 137.96 63.0905 137.319 63.6777C136.812 63.7311 136.305 63.8112 135.798 63.918C135.291 64.0247 134.797 64.1849 134.316 64.3984H133.836C133.596 64.3984 133.422 64.3451 133.315 64.2383C132.968 64.4251 132.608 64.5586 132.234 64.6387C131.861 64.6921 131.487 64.7188 131.113 64.7188C130.633 64.7188 130.152 64.6921 129.672 64.6387C129.218 64.5586 128.751 64.4785 128.271 64.3984C128.004 64.0247 127.63 63.7445 127.149 63.5576C126.669 63.3441 126.242 63.1439 125.868 62.957C125.094 61.8893 124.534 60.8617 124.187 59.874C123.84 58.8597 123.479 57.7253 123.105 56.4707C123.159 56.097 123.252 55.7367 123.386 55.3896C123.519 55.016 123.573 54.6156 123.546 54.1885C124.026 52.8005 124.654 51.5459 125.428 50.4248C126.229 49.277 127.136 48.1826 128.15 47.1416C128.15 46.9814 128.177 46.848 128.23 46.7412C128.311 46.6344 128.324 46.4743 128.271 46.2607C128.297 46.2874 128.351 46.3008 128.431 46.3008C128.644 46.3008 128.778 46.2474 128.831 46.1406C128.884 46.0072 128.898 45.8604 128.871 45.7002C129.832 45.0863 130.7 44.3789 131.474 43.5781C132.274 42.7773 133.182 42.11 134.196 41.5762C134.276 41.3359 134.41 41.1357 134.597 40.9756C134.784 40.8154 134.93 40.6286 135.037 40.415C135.891 40.1748 136.665 39.8145 137.359 39.334C138.053 38.8535 138.787 38.4264 139.562 38.0527C139.989 37.8125 140.389 37.6523 140.763 37.5723C141.163 37.4655 141.59 37.3587 142.044 37.252C142.204 37.1986 142.351 37.1585 142.484 37.1318C142.618 37.1051 142.765 37.0918 142.925 37.0918C143.405 37.0918 143.872 37.1852 144.326 37.3721C144.78 37.5322 145.247 37.6123 145.728 37.6123C145.861 37.6123 145.968 37.6123 146.048 37.6123C146.155 37.5856 146.261 37.5589 146.368 37.5322C146.822 38.0928 147.396 38.5199 148.09 38.8135C148.25 39.2139 148.437 39.5609 148.65 39.8545C148.891 40.1481 149.131 40.4417 149.371 40.7354C149.611 41.0023 149.825 41.3092 150.012 41.6562C150.225 41.9766 150.359 42.3636 150.412 42.8174ZM146.408 44.8994C146.408 44.766 146.395 44.6458 146.368 44.5391C146.101 44.459 145.848 44.3522 145.607 44.2188C145.367 44.0853 145.1 44.0186 144.807 44.0186C144.62 44.0186 144.433 44.0586 144.246 44.1387C144.219 43.9518 144.139 43.8184 144.006 43.7383C143.899 43.6582 143.766 43.5915 143.605 43.5381C143.472 43.458 143.325 43.4046 143.165 43.3779C143.032 43.3245 142.911 43.2445 142.805 43.1377C142.725 42.9242 142.631 42.7106 142.524 42.4971C142.444 42.2568 142.284 42.0833 142.044 41.9766C141.804 42.2168 141.523 42.417 141.203 42.5771C140.883 42.7106 140.549 42.8441 140.202 42.9775C139.882 43.111 139.562 43.2712 139.241 43.458C138.948 43.6449 138.694 43.8717 138.48 44.1387H137.76C137.6 44.4323 137.373 44.6592 137.079 44.8193C136.785 44.9528 136.532 45.153 136.318 45.4199C135.891 45.6335 135.491 45.9004 135.117 46.2207C134.77 46.5143 134.423 46.8346 134.076 47.1816C133.729 47.502 133.382 47.8356 133.035 48.1826C132.715 48.5296 132.368 48.8499 131.994 49.1436C131.647 49.891 131.26 50.5449 130.833 51.1055C130.433 51.6393 130.046 52.1865 129.672 52.7471C129.325 53.3076 129.018 53.9215 128.751 54.5889C128.511 55.2295 128.391 56.0303 128.391 56.9912V57.3916C128.391 57.5251 128.404 57.6585 128.431 57.792C128.778 58.1657 129.058 58.5661 129.271 58.9932C129.512 59.4202 129.899 59.7272 130.433 59.9141C130.966 60.1276 131.527 60.221 132.114 60.1943C132.728 60.1676 133.315 60.2344 133.876 60.3945C135.157 60.1543 136.385 59.7673 137.56 59.2334C138.761 58.6729 139.895 58.0055 140.963 57.2314C141.123 57.098 141.31 56.9645 141.523 56.8311C141.737 56.6709 141.91 56.5107 142.044 56.3506C142.177 56.2171 142.284 56.0703 142.364 55.9102C142.471 55.75 142.578 55.6032 142.685 55.4697C142.898 55.1227 143.138 54.7757 143.405 54.4287C143.672 54.0817 143.952 53.7614 144.246 53.4678C144.38 52.8805 144.553 52.32 144.767 51.7861C144.98 51.2256 145.194 50.6784 145.407 50.1445C145.621 49.6107 145.794 49.0635 145.928 48.5029C146.088 47.9424 146.168 47.3551 146.168 46.7412C146.168 46.6077 146.155 46.4609 146.128 46.3008C146.128 46.1406 146.115 45.9938 146.088 45.8604C146.301 45.5667 146.408 45.2464 146.408 44.8994Z" fill="#5936A4"/>
</svg>
